<svg id="visual" viewBox="0 0 900 600" width="900" height="600" xmlns="http://www.w3.org/2000/svg" xmlns:xlink="http://www.w3.org/1999/xlink" version="1.1"><rect x="0" y="0" width="900" height="600" fill="#ffffff"></rect><path d="M498 0L484.8 25C471.7 50 445.3 100 424.3 150C403.3 200 387.7 250 399.8 300C412 350 452 400 479.2 450C506.3 500 520.7 550 527.8 575L535 600L0 600L0 575C0 550 0 500 0 450C0 400 0 350 0 300C0 250 0 200 0 150C0 100 0 50 0 25L0 0Z" fill="#002233" stroke-linecap="round" stroke-linejoin="miter"></path></svg>